<svg width="32" height="32" viewBox="0 0 32 32" fill="none" xmlns="http://www.w3.org/2000/svg">
<path fill-rule="evenodd" clip-rule="evenodd" d="M6.17704 14.2037L7.10033 11.7901H1.5C1.43434 11.7901 1.36932 11.803 1.30866 11.8281C1.248 11.8533 1.19288 11.8901 1.14645 11.9365C1.10002 11.9829 1.06319 12.0381 1.03806 12.0987C1.01293 12.1594 1 12.2244 1 12.2901V15.2899C1 15.3556 1.01293 15.4206 1.03806 15.4813C1.06319 15.5419 1.10002 15.5971 1.14645 15.6435C1.19288 15.6899 1.248 15.7267 1.30866 15.7519C1.36932 15.777 1.43434 15.7899 1.5 15.7899H6.3V16.7899H3.2608L6.58181 26.329L6.4985 26.358L6.60315 26.3461C6.61723 26.4709 6.67772 26.5858 6.77259 26.668C6.8634 26.7466 6.97934 26.7899 7.09912 26.7901H7.10086L7.11527 26.7898L7.11528 26.7901H24.9021L24.9023 26.7878L24.9101 26.7885C24.9161 26.789 24.922 26.7893 24.9279 26.7896C24.9349 26.7899 24.9418 26.7901 24.9488 26.7901H24.9512C25.0595 26.7898 25.1652 26.7544 25.2522 26.6884C25.3522 26.6125 25.42 26.5018 25.4422 26.3783L25.4588 26.3812L28.744 16.7899H25.7V15.7899H30.5C30.5657 15.7899 30.6307 15.777 30.6913 15.7519C30.752 15.7267 30.8071 15.6899 30.8536 15.6435C30.9 15.5971 30.9368 15.5419 30.9619 15.4813C30.9871 15.4206 31 15.3556 31 15.2899V12.2901C31 12.2244 30.9871 12.1594 30.9619 12.0987C30.9368 12.0381 30.9 11.9829 30.8536 11.9365C30.8071 11.8901 30.752 11.8533 30.6913 11.8281C30.6307 11.803 30.5657 11.7901 30.5 11.7901H24.8997L25.823 14.2037L24.889 14.561L23.829 11.7901H8.171L7.11104 14.561L6.17704 14.2037ZM23.4465 10.7901H8.55354L10.934 4.56721L10 4.20993L7.48287 10.7901H1.5H1.3V10.8035C1.17177 10.8207 1.04603 10.8545 0.925975 10.9043C0.743986 10.9796 0.578628 11.0901 0.43934 11.2294C0.300052 11.3687 0.189563 11.5341 0.114181 11.716C0.0490388 11.8733 0.0112162 12.0403 0.00214237 12.2099H0V12.2901V15.2899V15.5099H0.0162211C0.0342066 15.6312 0.0670404 15.7501 0.114181 15.864C0.189563 16.0459 0.300052 16.2113 0.43934 16.3506C0.578628 16.4899 0.743986 16.6004 0.925975 16.6757C1.04603 16.7255 1.17177 16.7593 1.3 16.7765V16.7899H1.5H2.20193L5.63741 26.6577L5.64508 26.6551C5.71962 26.9522 5.88386 27.2211 6.11779 27.4238C6.36551 27.6384 6.6756 27.7651 7 27.7867V27.7901H7.09866H7.10126H24.9472H24.9528H25V27.7892C25.3085 27.779 25.6081 27.6736 25.8566 27.4851C26.1119 27.2914 26.2972 27.0221 26.3878 26.7177L26.3992 26.7216L29.801 16.7899H30.5H30.7V16.7765C30.8282 16.7593 30.954 16.7255 31.074 16.6757C31.256 16.6004 31.4214 16.4899 31.5607 16.3506C31.6999 16.2113 31.8104 16.0459 31.8858 15.864C31.9225 15.7753 31.9506 15.6836 31.9697 15.5901H32V15.2899V12.2901C32 12.0931 31.9612 11.898 31.8858 11.716C31.8104 11.5341 31.6999 11.3687 31.5607 11.2294C31.4214 11.0901 31.256 10.9796 31.074 10.9043C30.9229 10.8417 30.7628 10.8043 30.6 10.7934V10.7901H30.5H24.5171L22 4.20993L21.066 4.56721L23.4465 10.7901ZM7 18.7899L8.51585 24.8533L9.48599 24.6108L7.97014 18.5474L7 18.7899ZM23.4842 24.8533L25 18.7899L24.0299 18.5474L22.514 24.6108L23.4842 24.8533ZM16.5 17.7899V23.2899H15.5V17.7899H16.5ZM12.1167 23.8222L11 18.0899L11.9815 17.8987L13.0982 23.631L12.1167 23.8222ZM21.23 18.0899L20.1133 23.8222L19.1318 23.631L20.2485 17.8987L21.23 18.0899Z" fill="black"/>
</svg>
