<?xml version="1.0" encoding="UTF-8" standalone="no"?>
<!-- Created with Inkscape (http://www.inkscape.org/) -->

<svg
   xmlns:dc="http://purl.org/dc/elements/1.1/"
   xmlns:cc="http://creativecommons.org/ns#"
   xmlns:rdf="http://www.w3.org/1999/02/22-rdf-syntax-ns#"
   xmlns:svg="http://www.w3.org/2000/svg"
   xmlns="http://www.w3.org/2000/svg"
   xmlns:sodipodi="http://sodipodi.sourceforge.net/DTD/sodipodi-0.dtd"
   xmlns:inkscape="http://www.inkscape.org/namespaces/inkscape"
   width="32"
   height="32"
   viewBox="0 0 32 32"
   version="1.1"
   id="svg8"
   inkscape:version="0.92.5 (0.92.5+68)"
   sodipodi:docname="drawing-1.svg">
  <defs
     id="defs2" />
  <sodipodi:namedview
     id="base"
     pagecolor="#ffffff"
     bordercolor="#666666"
     borderopacity="1.0"
     inkscape:pageopacity="0.0"
     inkscape:pageshadow="2"
     inkscape:zoom="1.979899"
     inkscape:cx="142.57576"
     inkscape:cy="-31.210858"
     inkscape:document-units="px"
     inkscape:current-layer="layer1"
     showgrid="false"
     units="px"
     inkscape:window-width="1301"
     inkscape:window-height="744"
     inkscape:window-x="65"
     inkscape:window-y="24"
     inkscape:window-maximized="1"
     viewbox-width="8.47"
     fit-margin-top="-0.7"
     fit-margin-left="0"
     fit-margin-right="0"
     fit-margin-bottom="0" />
  <metadata
     id="metadata5">
    <rdf:RDF>
      <cc:Work
         rdf:about="">
        <dc:format>image/svg+xml</dc:format>
        <dc:type
           rdf:resource="http://purl.org/dc/dcmitype/StillImage" />
        <dc:title></dc:title>
      </cc:Work>
    </rdf:RDF>
  </metadata>
  <g
     inkscape:label="Layer 1"
     inkscape:groupmode="layer"
     id="layer1"
     transform="translate(0,-189.38832)">
    <path
       style="font-style:normal;font-variant:normal;font-weight:bold;font-stretch:normal;font-size:1.61831605px;line-height:1;font-family:Caslim;-inkscape-font-specification:'Caslim Bold';letter-spacing:0px;word-spacing:0px;fill:#000000;fill-opacity:1;stroke:none;stroke-width:1.11839235"
       d="m 0,189.38872 v 31.24221 0.49497 h 0.246764 2.142684 0.736429 v -0.37077 -15.19514 c 0.289699,-0.4953 0.60813,-0.97734 0.955784,-1.44789 0.366952,-0.49531 0.753883,-0.94103 1.15948,-1.33727 0.302738,-0.29594 0.61979,-0.52668 0.944034,-0.72586 0.314416,-0.12094 0.633917,-0.20598 0.957745,-0.20598 0.347639,0 0.69431,0.0884 1.041964,0.2623 0.347639,0.14891 0.69431,0.40871 1.041964,0.78024 0.178468,0.19502 0.325075,0.41167 0.458307,0.63851 0.125215,0.30614 0.225145,0.62982 0.282026,0.98404 0.154506,0.81724 0.231117,1.63403 0.231117,2.45135 v 13.67146 0.49497 h 2.389467 0.736425 v -0.37077 -14.59926 c 0,-0.84204 -0.135042,-1.59828 -0.405427,-2.26695 -0.270386,-0.69343 -0.627115,-1.27619 -1.071342,-1.74678 -0.373907,-0.41408 -0.810833,-0.73481 -1.304413,-0.97629 -0.143735,-0.0824 -0.293743,-0.15647 -0.448514,-0.22299 -0.222726,-0.10469 -0.449289,-0.18406 -0.677669,-0.24869 a 1.6935646,0.43916942 0 0 0 -1.455223,-0.21543 1.6935646,0.43916942 0 0 0 -1.106597,0.10658 c -0.787766,0.10885 -1.547647,0.3976 -2.277828,0.87533 -0.52698,0.3447 -1.008164,0.74514 -1.451307,1.18976 v -13.13775 -0.12435 H 2.881033 2.144608 Z m 11.297079,0.85402 c -0.231759,0 -0.443396,0.0151 -0.636536,0.0386 -0.17382,0 -0.337094,0.0113 -0.491604,0.0378 -0.154506,0.0495 -0.299602,0.0862 -0.434806,0.11036 l 0.02759,0.66962 v 0.49489 h 0.244836 c 0.811195,0 1.613259,0.12321 2.405137,0.37077 0.791882,0.24794 1.497209,0.64486 2.115264,1.18975 0.526009,0.44965 0.963127,1.00543 1.318125,1.65751 0.365402,0.82821 0.552318,1.81916 0.552318,2.97535 v 22.77223 0.493 h 0.244836 2.142684 0.736425 v -0.37077 -0.80738 c 0.482696,0.42637 0.963408,0.76362 1.437599,0.99371 0.733935,0.34696 1.457438,0.52014 2.172063,0.52014 0.923095,0 1.806425,-0.26608 2.653873,-0.77049 0.361359,-0.14967 0.719134,-0.32806 1.067427,-0.56481 0.946392,-0.64392 1.786753,-1.47477 2.520688,-2.49014 0.733938,-1.04016 1.332479,-2.21782 1.796017,-3.53045 0.463541,-1.33734 0.733594,-2.67249 0.810851,-4.00987 0.07725,-1.3621 -0.06784,-2.67692 -0.434802,-3.93996 -0.366952,-1.28783 -1.011913,-2.41322 -1.938996,-3.37908 -0.511877,-0.53329 -1.073885,-0.94083 -1.6785,-1.23632 -0.203224,-0.11225 -0.410655,-0.2143 -0.624786,-0.29896 -0.536403,-0.22941 -1.083237,-0.37266 -1.63933,-0.43865 a 1.6935646,0.43916942 0 0 0 -0.0057,-0.002 c -0.02759,-0.003 -0.05465,-0.008 -0.08228,-0.0113 a 1.6935646,0.43916942 0 0 0 -0.86765,-0.0643 1.6935646,0.43916942 0 0 0 -0.818686,0.0563 c -0.93621,0.0548 -1.851417,0.31068 -2.742012,0.79381 -0.590324,0.30576 -1.128711,0.69199 -1.625618,1.14319 v -2.20871 c 0,-1.48595 -0.163274,-2.84726 -0.491604,-4.08554 -0.309012,-1.23829 -0.772538,-2.30309 -1.390589,-3.19468 -0.598741,-0.89155 -1.352435,-1.57315 -2.2602,-2.04374 -0.05718,-0.034 -0.119848,-0.054 -0.178242,-0.0835 -0.02305,-0.0113 -0.04343,-0.0302 -0.06659,-0.0408 -0.888452,-0.49527 -1.922267,-0.74336 -3.100429,-0.74336 -0.126236,0 -0.231873,0.0151 -0.346657,0.0227 -0.130128,-0.008 -0.255872,-0.0227 -0.389757,-0.0227 z m 12.675922,11.71314 c 0.656682,0 1.293521,0.19956 1.911572,0.59584 0.618054,0.39625 1.186398,1.03956 1.707882,1.93115 0.08504,0.14438 0.157417,0.29442 0.235048,0.44254 0.343254,0.75394 0.60319,1.55523 0.765803,2.40668 0.251072,1.18874 0.347828,2.38873 0.28985,3.60226 -0.03863,1.18874 -0.211955,2.34028 -0.520982,3.45475 -0.309012,1.11446 -0.724172,2.10662 -1.245657,2.97342 -0.502164,0.86679 -1.100705,1.55863 -1.796017,2.07869 -0.569446,0.43813 -1.189387,0.68209 -1.854773,0.75115 -0.388347,-0.0438 -0.789043,-0.15232 -1.200608,-0.33752 -0.131489,-0.0673 -0.261807,-0.13379 -0.395631,-0.21543 -0.753252,-0.47051 -1.537144,-1.22486 -2.348335,-2.26503 v -11.99845 c 0.733934,-1.16394 1.546059,-2.08153 2.434511,-2.75024 0.189731,-0.14476 0.381311,-0.26532 0.571903,-0.38037 0.478803,-0.18898 0.961367,-0.28914 1.445434,-0.28914 z"
       id="text12"
       inkscape:connector-curvature="0" />
  </g>
</svg>
