<svg width="32" height="32" viewBox="0 0 32 32" fill="none" xmlns="http://www.w3.org/2000/svg">
<circle cx="16" cy="16" r="14.5" stroke="black"/>
<path d="M13.6252 24.442V25.442H13.6506L13.676 25.4407L13.6252 24.442ZM13.3372 24.298L12.5052 24.8527L12.5348 24.8971L12.569 24.9382L13.3372 24.298ZM13.2412 23.962L12.2442 23.8853L12.2412 23.9236V23.962H13.2412ZM13.3852 23.602L13.7566 24.5305L13.831 24.5007L13.8997 24.4595L13.3852 23.602ZM14.7052 23.314L14.072 22.54L14.072 22.54L14.7052 23.314ZM14.9932 22.81L14.0068 22.6456L14.0001 22.6861L13.9967 22.727L14.9932 22.81ZM14.9932 15.49L13.9967 15.573L14.0001 15.6139L14.0068 15.6544L14.9932 15.49ZM14.7052 14.986L15.3385 14.212L15.3385 14.212L14.7052 14.986ZM13.3852 14.698L12.8305 15.5301L12.8823 15.5646L12.938 15.5924L13.3852 14.698ZM13.3372 14.026L14.1181 14.6507L14.1452 14.6168L14.1693 14.5807L13.3372 14.026ZM13.6252 13.858L13.7493 14.8503L13.758 14.8492L13.7666 14.8479L13.6252 13.858ZM16.2172 13.234L15.8809 12.2923L15.8723 12.2953L15.8638 12.2985L16.2172 13.234ZM16.7692 13.09V12.09H16.7138L16.6588 12.0961L16.7692 13.09ZM17.2732 22.81L16.2868 22.9744L16.2868 22.9744L17.2732 22.81ZM17.5852 23.314L18.2185 22.54L18.2185 22.54L17.5852 23.314ZM18.9052 23.602L19.5052 22.802L19.5052 22.802L18.9052 23.602ZM19.0252 23.962H20.0252V23.9204L20.0218 23.879L19.0252 23.962ZM18.9292 24.298L19.7613 24.8527L19.7613 24.8527L18.9292 24.298ZM18.6412 24.442L18.5896 25.4407L18.6154 25.442H18.6412V24.442ZM14.8732 10.018L14.1855 10.744L14.1958 10.7537L14.2064 10.7632L14.8732 10.018ZM17.2012 7.978L16.4538 8.64236L16.4633 8.653L16.473 8.66336L17.2012 7.978ZM17.1292 10.018L16.4624 9.27276L16.4624 9.27276L17.1292 10.018ZM13.6252 23.442C13.7175 23.442 13.8195 23.4631 13.9164 23.5116C14.0104 23.5586 14.0715 23.6171 14.1054 23.6578L12.569 24.9382C12.8142 25.2324 13.1798 25.442 13.6252 25.442V23.442ZM14.1693 23.7433C14.1952 23.7822 14.2146 23.8248 14.2267 23.8673C14.2387 23.909 14.2412 23.9422 14.2412 23.962H12.2412C12.2412 24.265 12.3198 24.5747 12.5052 24.8527L14.1693 23.7433ZM14.2383 24.0387C14.2426 23.9818 14.2473 24.0135 14.2177 24.0874C14.1907 24.155 14.0743 24.4034 13.7566 24.5305L13.0138 22.6735C12.6162 22.8326 12.4358 23.157 12.3607 23.3446C12.2832 23.5385 12.2558 23.7342 12.2442 23.8853L14.2383 24.0387ZM13.8997 24.4595C13.8396 24.4955 13.7901 24.5139 13.7632 24.5225C13.7355 24.5315 13.7187 24.5342 13.7176 24.5344C13.7159 24.5347 13.7231 24.5334 13.7412 24.5322C13.759 24.531 13.784 24.53 13.8172 24.53V22.53C13.6006 22.53 13.2069 22.5428 12.8707 22.7445L13.8997 24.4595ZM13.8172 24.53C14.2952 24.53 14.8864 24.4578 15.3385 24.088L14.072 22.54C14.1322 22.4908 14.1644 22.4923 14.1149 22.5043C14.0665 22.5161 13.9724 22.53 13.8172 22.53V24.53ZM15.3385 24.088C15.6833 23.8058 15.9472 23.4035 15.9898 22.893L13.9967 22.727C14.0008 22.6769 14.0169 22.626 14.041 22.5839C14.0633 22.5448 14.0816 22.5322 14.072 22.54L15.3385 24.088ZM15.9796 22.9744C16.0261 22.6957 16.0412 22.3217 16.0412 21.898H14.0412C14.0412 22.3063 14.0244 22.5403 14.0068 22.6456L15.9796 22.9744ZM16.0412 21.898V16.402H14.0412V21.898H16.0412ZM16.0412 16.402C16.0412 15.9783 16.0261 15.6043 15.9796 15.3256L14.0068 15.6544C14.0244 15.7597 14.0412 15.9937 14.0412 16.402H16.0412ZM15.9898 15.407C15.9472 14.8965 15.6833 14.4942 15.3385 14.212L14.072 15.76C14.0816 15.7678 14.0633 15.7552 14.041 15.7161C14.0169 15.674 14.0008 15.6231 13.9967 15.573L15.9898 15.407ZM15.3385 14.212C14.8864 13.8422 14.2952 13.77 13.8172 13.77V15.77C13.9724 15.77 14.0665 15.7839 14.1149 15.7957C14.1644 15.8077 14.1322 15.8092 14.072 15.76L15.3385 14.212ZM13.8172 13.77C13.7898 13.77 13.7688 13.7691 13.7535 13.768C13.7381 13.7669 13.7305 13.7658 13.7296 13.7656C13.7286 13.7654 13.7373 13.7668 13.7536 13.7717C13.7697 13.7765 13.7974 13.7861 13.8324 13.8036L12.938 15.5924C13.243 15.7449 13.5741 15.77 13.8172 15.77V13.77ZM13.9399 13.8659C14.1128 13.9812 14.1905 14.1309 14.2202 14.2152C14.2466 14.2901 14.2412 14.3264 14.2412 14.29H12.2412C12.2412 14.5706 12.2928 15.1716 12.8305 15.5301L13.9399 13.8659ZM14.2412 14.29C14.2412 14.3556 14.2299 14.4254 14.205 14.4937C14.1805 14.5613 14.1477 14.6136 14.1181 14.6507L12.5564 13.4013C12.3607 13.6458 12.2412 13.9511 12.2412 14.29H14.2412ZM14.1693 14.5807C14.1201 14.6544 14.0497 14.7241 13.9611 14.7758C13.8752 14.8259 13.7979 14.8442 13.7493 14.8503L13.5012 12.8657C13.1229 12.913 12.7505 13.1032 12.5052 13.4713L14.1693 14.5807ZM13.7666 14.8479C14.8253 14.6967 15.7643 14.4741 16.5706 14.1695L15.8638 12.2985C15.2301 12.5379 14.4411 12.7313 13.4838 12.868L13.7666 14.8479ZM16.5536 14.1757C16.7447 14.1075 16.8459 14.0876 16.8797 14.0839L16.6588 12.0961C16.4045 12.1244 16.1377 12.2005 15.8809 12.2923L16.5536 14.1757ZM16.7692 14.09H16.8412V12.09H16.7692V14.09ZM16.8412 14.09C16.7657 14.09 16.5422 14.0594 16.3643 13.8481C16.2141 13.6697 16.2252 13.5102 16.2252 13.546H18.2252C18.2252 13.2778 18.1724 12.8903 17.8941 12.5599C17.5882 12.1966 17.1727 12.09 16.8412 12.09V14.09ZM16.2252 13.546V21.898H18.2252V13.546H16.2252ZM16.2252 21.898C16.2252 22.3217 16.2404 22.6957 16.2868 22.9744L18.2596 22.6456C18.2421 22.5403 18.2252 22.3063 18.2252 21.898H16.2252ZM16.2868 22.9744C16.3653 23.4451 16.6217 23.8177 16.952 24.088L18.2185 22.54C18.2033 22.5276 18.2113 22.5307 18.2255 22.5536C18.2409 22.5786 18.2539 22.6113 18.2596 22.6456L16.2868 22.9744ZM16.952 24.088C17.404 24.4578 17.9952 24.53 18.4732 24.53V22.53C18.3181 22.53 18.2239 22.5161 18.1756 22.5043C18.126 22.4923 18.1582 22.4908 18.2185 22.54L16.952 24.088ZM18.4732 24.53H18.6172V22.53H18.4732V24.53ZM18.6172 24.53C18.622 24.53 18.5932 24.5308 18.5427 24.5181C18.4911 24.5052 18.4019 24.4745 18.3052 24.402L19.5052 22.802C19.1918 22.567 18.8414 22.53 18.6172 22.53V24.53ZM18.3052 24.402C18.2011 24.3239 18.1362 24.2388 18.0985 24.1779C18.0611 24.1175 18.0426 24.0684 18.0345 24.0442C18.0199 24.0003 18.0242 23.9917 18.0287 24.045L20.0218 23.879C20.0102 23.7403 19.9865 23.5757 19.9319 23.4118C19.8821 23.2622 19.7695 23.0002 19.5052 22.802L18.3052 24.402ZM18.0252 23.962C18.0252 23.9422 18.0278 23.909 18.0397 23.8673C18.0518 23.8248 18.0712 23.7822 18.0972 23.7433L19.7613 24.8527C19.9466 24.5747 20.0252 24.265 20.0252 23.962H18.0252ZM18.0972 23.7433C18.1542 23.6577 18.2427 23.5712 18.362 23.5116C18.4771 23.454 18.5796 23.442 18.6412 23.442V25.442C19.0605 25.442 19.4891 25.2609 19.7613 24.8527L18.0972 23.7433ZM18.6929 23.4433C17.7515 23.3946 16.8939 23.37 16.1212 23.37V25.37C16.8525 25.37 17.6749 25.3934 18.5896 25.4407L18.6929 23.4433ZM16.1212 23.37C15.38 23.37 14.5305 23.3947 13.5744 23.4433L13.676 25.4407C14.608 25.3933 15.4224 25.37 16.1212 25.37V23.37ZM16.0012 9.426C15.7731 9.426 15.6421 9.36408 15.54 9.27276L14.2064 10.7632C14.7124 11.2159 15.3333 11.426 16.0012 11.426V9.426ZM15.561 9.29205C15.4548 9.19147 15.4172 9.10135 15.4172 8.962H13.4172C13.4172 9.65465 13.6836 10.2685 14.1855 10.744L15.561 9.29205ZM15.4172 8.962C15.4172 8.95324 15.4173 8.94725 15.4274 8.92925C15.441 8.90492 15.4812 8.84712 15.5855 8.7655L14.3529 7.19049C13.8143 7.61204 13.4172 8.20579 13.4172 8.962H15.4172ZM15.5855 8.7655C15.779 8.61413 15.9783 8.546 16.2172 8.546V6.546C15.5281 6.546 14.8955 6.76587 14.3529 7.19049L15.5855 8.7655ZM16.2172 8.546C16.344 8.546 16.3956 8.57693 16.4538 8.64236L17.9486 7.31364C17.4948 6.80307 16.8905 6.546 16.2172 6.546V8.546ZM16.473 8.66336C16.5272 8.7209 16.5852 8.81396 16.5852 9.034H18.5852C18.5852 8.39004 18.3873 7.7791 17.9294 7.29263L16.473 8.66336ZM16.5852 9.034C16.5852 9.11407 16.5693 9.17711 16.4624 9.27276L17.796 10.7632C18.2971 10.3149 18.5852 9.72193 18.5852 9.034H16.5852ZM16.4624 9.27276C16.3604 9.36408 16.2293 9.426 16.0012 9.426V11.426C16.6691 11.426 17.2901 11.2159 17.796 10.7632L16.4624 9.27276Z" fill="black"/>
</svg>
