<svg width="32" height="32" viewBox="0 0 32 32" fill="none" xmlns="http://www.w3.org/2000/svg">
<path fill-rule="evenodd" clip-rule="evenodd" d="M29 4.5H3C1.89543 4.5 1 5.39543 1 6.5V25.5C1 26.6046 1.89543 27.5 3 27.5H29C30.1046 27.5 31 26.6046 31 25.5V6.5C31 5.39543 30.1046 4.5 29 4.5ZM2 6.5C2 5.94772 2.44772 5.5 3 5.5H5V9.5H2V6.5ZM2 10.5H5V13.5H2V10.5ZM2 14.5H5V17.5H2V14.5ZM2 18.5H5V21.5H2V18.5ZM2 22.5H5V26.4999H6V5.5H26L26.1071 26.5H3C2.44771 26.5 2 26.0523 2 25.5V22.5ZM27.1072 26.5H29C29.5523 26.5 30 26.0523 30 25.5V22.5H27.0867L27.1072 26.5ZM27.0408 13.5L27.0255 10.5H30V13.5H27.0408ZM27.0459 14.5H30V17.5H27.0612L27.0459 14.5ZM27.0663 18.5H30V21.5H27.0816L27.0663 18.5ZM27.0204 9.5L27 5.5H29C29.5523 5.5 30 5.94772 30 6.5V9.5H27.0204ZM13.0538 11.718L20.5538 16.0482L13.0538 20.3783V11.718ZM12.0538 11.718C12.0538 10.9482 12.8872 10.4671 13.5538 10.852L21.0538 15.1821C21.7205 15.567 21.7205 16.5293 21.0538 16.9142L13.5538 21.2443C12.8872 21.6292 12.0538 21.1481 12.0538 20.3783V11.718Z" fill="black"/>
</svg>
