<svg width="32" height="32" viewBox="0 0 32 32" fill="none" xmlns="http://www.w3.org/2000/svg">
<path fill-rule="evenodd" clip-rule="evenodd" d="M11.5237 1.87868C12.6953 0.707107 14.5948 0.707107 15.7664 1.87868C16.938 0.707107 18.8375 0.707107 20.009 1.87868C21.1806 3.05025 21.1806 4.94975 20.009 6.12132L16.4735 9.65685L15.7664 10.364L15.0593 9.65685L11.5237 6.12132C10.3522 4.94975 10.3522 3.05025 11.5237 1.87868ZM19.3019 5.41422L15.7664 8.94975L12.2309 5.41422C11.4498 4.63316 11.4498 3.36683 12.2309 2.58579C13.0119 1.80474 14.2782 1.80474 15.0593 2.58579L15.7664 3.29289L16.4735 2.58579C17.2545 1.80474 18.5209 1.80474 19.3019 2.58579C20.083 3.36683 20.083 4.63316 19.3019 5.41422ZM5.5005 5.73412C4.06562 4.90569 2.23085 5.39731 1.40242 6.83219C0.573998 8.26707 1.06562 10.1018 2.5005 10.9303L6.83063 13.4303L7.69665 13.9303L8.19665 13.0642L10.6967 8.73412C11.5251 7.29924 11.0335 5.46447 9.59858 4.63604C8.1637 3.80761 6.32893 4.29924 5.5005 5.73412ZM7.33063 12.5642L9.83063 8.23412C10.3829 7.27753 10.0552 6.05435 9.09858 5.50206C8.14199 4.94978 6.91881 5.27753 6.36653 6.23412L5.86653 7.10014L5.0005 6.60014C4.04392 6.04786 2.82073 6.37561 2.26845 7.33219C1.71617 8.28878 2.04391 9.51196 3.0005 10.0642L7.33063 12.5642ZM25.4024 15.636H25.3653C25.3789 15.6647 25.3925 15.6934 25.4061 15.7223C25.4037 15.6939 25.4024 15.6651 25.4024 15.636ZM26.4024 14.636C26.9547 14.636 27.4024 15.0838 27.4024 15.636C27.4024 16.1883 26.9547 16.636 26.4024 16.636C26.1143 16.636 25.8546 16.5142 25.6721 16.3191C26.1315 17.406 26.5093 18.6094 26.7935 19.8958C27.1955 21.7157 27.4024 23.6662 27.4024 25.636V26.136V26.636H27.3653C27.3402 26.8042 27.3025 26.9712 27.2524 27.136C27.1776 27.3822 27.0751 27.6238 26.9457 27.8581C26.6442 28.4041 26.2022 28.9002 25.6451 29.318C25.0879 29.7359 24.4265 30.0674 23.6985 30.2935C23.3009 30.417 22.8877 30.5078 22.4661 30.5648L22.4024 30.5731C22.2918 30.5871 22.1807 30.5988 22.0691 30.6082V30.636L21.4024 30.636H9.40242L8.73575 30.636V30.6082C8.62418 30.5988 8.51303 30.5871 8.40242 30.5731L8.33873 30.5648C7.91718 30.5078 7.50395 30.417 7.10632 30.2935C6.37837 30.0674 5.71694 29.7359 5.15978 29.318C4.60263 28.9002 4.16068 28.4041 3.85915 27.8581C3.72972 27.6238 3.62725 27.3822 3.55245 27.136C3.5067 26.9855 3.47129 26.8332 3.4464 26.6798L3.42185 26.6808L3.42022 26.636H3.40242V26.136V25.6431V25.636C3.40242 23.7992 3.58237 21.9749 3.93494 20.2549C4.22634 18.8332 4.63075 17.5068 5.13273 16.3192C4.95025 16.5142 4.69057 16.636 4.40242 16.636C3.85014 16.636 3.40242 16.1883 3.40242 15.636C3.40242 15.0838 3.85014 14.636 4.40242 14.636H26.4024ZM5.43958 15.636L5.39876 15.7223C5.40119 15.6938 5.40242 15.6651 5.40242 15.636H5.43958ZM6.55637 15.636H24.2485C24.9087 16.9084 25.4445 18.4254 25.817 20.1115C26.2025 21.8566 26.4024 23.7347 26.4024 25.636L20.7358 25.636V20.636H20.7024C20.7024 20.1108 20.5692 19.5906 20.3104 19.1053C20.0516 18.62 19.6723 18.1791 19.194 17.8076C18.7158 17.4362 18.1481 17.1415 17.5232 16.9405C16.8984 16.7395 16.2287 16.636 15.5524 16.636C14.8761 16.636 14.2064 16.7395 13.5816 16.9405C12.9568 17.1415 12.389 17.4362 11.9108 17.8076C11.4326 18.1791 11.0532 18.62 10.7944 19.1053C10.5356 19.5906 10.4024 20.1108 10.4024 20.636V25.636H4.40242C4.40242 23.864 4.57608 22.1071 4.91457 20.4557C5.28836 18.6321 5.85131 16.9947 6.55637 15.636ZM19.7358 20.636H19.7024C19.7024 20.2827 19.6134 19.9234 19.428 19.5759C19.2418 19.2267 18.959 18.8913 18.5806 18.5974C18.202 18.3033 17.7401 18.0608 17.217 17.8925C16.6941 17.7243 16.128 17.636 15.5524 17.636C14.9769 17.636 14.4107 17.7243 13.8879 17.8925C13.3648 18.0608 12.9029 18.3033 12.5242 18.5974C12.1458 18.8913 11.863 19.2267 11.6768 19.5759C11.4915 19.9234 11.4024 20.2827 11.4024 20.636V25.636H15.2024V25.6014C14.9493 25.562 14.7062 25.4896 14.4841 25.3868C14.1678 25.2404 13.9038 25.0368 13.7156 24.7942C13.5272 24.5514 13.4204 24.277 13.4045 23.9955C13.3955 23.8354 13.416 23.6756 13.4648 23.5208C13.728 22.4282 14.0428 21.4609 14.3987 20.6503L14.3796 20.6402C14.4156 20.5718 14.4529 20.5064 14.4916 20.4442C14.5075 20.4101 14.5234 20.3762 14.5393 20.3427L14.5534 20.3493C14.6788 20.1652 14.8167 20.0129 14.9636 19.897C15.1825 19.7243 15.4166 19.636 15.6524 19.636C15.8882 19.636 16.1223 19.7243 16.3413 19.897C16.4882 20.0129 16.6261 20.1652 16.7515 20.3493L16.7655 20.3427C16.7815 20.3762 16.7974 20.41 16.8132 20.4442C16.8519 20.5064 16.8893 20.5718 16.9252 20.6402L16.9061 20.6503C17.2621 21.4609 17.5768 22.4281 17.84 23.5208C17.9084 23.7373 17.9209 23.9625 17.876 24.1835C17.8196 24.462 17.6738 24.7257 17.4515 24.9513C17.2293 25.1766 16.9376 25.3568 16.6021 25.4759C16.4732 25.5216 16.3393 25.5577 16.2024 25.584V25.636H19.7358V20.636ZM16.2024 24.5551C16.2245 24.5482 16.2463 24.541 16.2678 24.5334C16.4785 24.4586 16.6358 24.3543 16.7394 24.2492C16.8412 24.1459 16.8823 24.0522 16.896 23.9848C16.9017 23.9564 16.9039 23.927 16.9013 23.8961L16.8783 23.7987C16.875 23.7901 16.8713 23.7813 16.8672 23.7724L16.8715 23.7704C16.6031 22.6524 16.284 21.6948 15.9337 20.9252C15.8529 20.8042 15.7786 20.7269 15.7219 20.6821C15.6866 20.6543 15.6632 20.6427 15.6524 20.6383C15.6416 20.6427 15.6183 20.6543 15.583 20.6821C15.5262 20.7269 15.4519 20.8042 15.3712 20.9252C15.0282 21.6787 14.7152 22.6123 14.4503 23.7002L14.4702 23.7128C14.4512 23.743 14.4369 23.7716 14.4266 23.7986L14.4035 23.896C14.4023 23.9111 14.4021 23.9255 14.4029 23.9391C14.4064 24.0005 14.4301 24.0838 14.5056 24.1811C14.5835 24.2815 14.7134 24.391 14.9042 24.4793C14.9954 24.5216 15.0956 24.5565 15.2024 24.5827V23.636H16.2024V24.5551ZM26.2811 6.31027C25.8523 4.70988 24.2073 3.76013 22.6069 4.18895C21.0065 4.61778 20.0567 6.26279 20.4856 7.86319L21.7796 12.6928L22.0385 13.6587L23.0044 13.3999L27.834 12.1058C29.4344 11.677 30.3842 10.032 29.9553 8.43159C29.5265 6.8312 27.8815 5.88145 26.2811 6.31027ZM22.7456 12.434L27.5752 11.1399C28.6421 10.854 29.2753 9.75734 28.9894 8.69041C28.7035 7.62348 27.6069 6.99032 26.5399 7.2762L25.574 7.53502L25.3152 6.56909C25.0293 5.50216 23.9326 4.869 22.8657 5.15488C21.7988 5.44076 21.1656 6.53744 21.4515 7.60437L22.7456 12.434ZM4.77335 26.636H26.0315C25.9761 26.9247 25.8727 27.2077 25.7233 27.4783C25.4882 27.9039 25.1437 28.2906 24.7094 28.6163C24.2752 28.942 23.7596 29.2004 23.1922 29.3767C22.9117 29.4638 22.6213 29.53 22.3251 29.5747C22.1225 29.6053 21.9172 29.6258 21.7106 29.636H9.0943C8.88765 29.6258 8.68236 29.6053 8.47977 29.5747C8.18358 29.53 7.89315 29.4638 7.61268 29.3767C7.04526 29.2004 6.52969 28.942 6.09541 28.6163C5.66112 28.2906 5.31663 27.9039 5.0816 27.4783C4.93212 27.2077 4.82878 26.9247 4.77335 26.636Z" fill="black"/>
</svg>
