<svg width="32" height="32" viewBox="0 0 32 32" fill="none" xmlns="http://www.w3.org/2000/svg">
<path fill-rule="evenodd" clip-rule="evenodd" d="M9.86396 5.03769L10.5711 5.7448L11.2782 5.03769C11.864 4.4519 12.8137 4.4519 13.3995 5.03769C13.9853 5.62348 13.9853 6.57322 13.3995 7.15901L10.5711 9.98744L7.74264 7.15901C7.15685 6.57322 7.15685 5.62348 7.74264 5.03769C8.32843 4.4519 9.27817 4.4519 9.86396 5.03769ZM14.1066 7.86612C15.0829 6.88981 15.0829 5.30689 14.1066 4.33058C13.1303 3.35427 11.5474 3.35427 10.5711 4.33058C9.59476 3.35427 8.01184 3.35427 7.03553 4.33058C6.05922 5.30689 6.05922 6.88981 7.03553 7.86612L9.86396 10.6945L10.5711 11.4017L11.2782 10.6945L14.1066 7.86612ZM20.864 5.03769L21.5711 5.7448L22.2782 5.03769C22.864 4.4519 23.8137 4.4519 24.3995 5.03769C24.9853 5.62348 24.9853 6.57322 24.3995 7.15901L21.5711 9.98744L18.7426 7.15901C18.1569 6.57322 18.1569 5.62348 18.7426 5.03769C19.3284 4.4519 20.2782 4.4519 20.864 5.03769ZM25.1066 7.86612C26.0829 6.88981 26.0829 5.30689 25.1066 4.33058C24.1303 3.35427 22.5474 3.35427 21.5711 4.33058C20.5948 3.35427 19.0118 3.35427 18.0355 4.33058C17.0592 5.30689 17.0592 6.88981 18.0355 7.86612L20.864 10.6945L21.5711 11.4017L22.2782 10.6945L25.1066 7.86612ZM15.5251 13.2377L16.2322 13.9448L16.9393 13.2377C17.5251 12.6519 18.4749 12.6519 19.0607 13.2377C19.6464 13.8235 19.6464 14.7732 19.0607 15.359L16.2322 18.1874L13.4038 15.359C12.818 14.7732 12.818 13.8235 13.4038 13.2377C13.9896 12.6519 14.9393 12.6519 15.5251 13.2377ZM19.7678 16.0661C20.7441 15.0898 20.7441 13.5069 19.7678 12.5306C18.7915 11.5543 17.2085 11.5543 16.2322 12.5306C15.2559 11.5543 13.673 11.5543 12.6967 12.5306C11.7204 13.5069 11.7204 15.0898 12.6967 16.0661L15.5251 18.8945L16.2322 19.6017L16.9393 18.8945L19.7678 16.0661ZM5.26777 13.9448L4.56066 13.2377C3.97487 12.6519 3.02513 12.6519 2.43934 13.2377C1.85355 13.8235 1.85355 14.7732 2.43934 15.359L5.26777 18.1874L8.09619 15.359C8.68198 14.7732 8.68198 13.8235 8.09619 13.2377C7.51041 12.6519 6.56066 12.6519 5.97487 13.2377L5.26777 13.9448ZM8.8033 12.5306C9.77961 13.5069 9.77961 15.0898 8.8033 16.0661L5.97487 18.8945L5.26777 19.6017L4.56066 18.8945L1.73223 16.0661C0.755922 15.0898 0.755922 13.5069 1.73223 12.5306C2.70854 11.5543 4.29146 11.5543 5.26777 12.5306C6.24408 11.5543 7.82699 11.5543 8.8033 12.5306ZM27.2678 13.9448L26.5607 13.2377C25.9749 12.6519 25.0251 12.6519 24.4393 13.2377C23.8536 13.8235 23.8536 14.7732 24.4393 15.359L27.2678 18.1874L30.0962 15.359C30.682 14.7732 30.682 13.8235 30.0962 13.2377C29.5104 12.6519 28.5607 12.6519 27.9749 13.2377L27.2678 13.9448ZM30.8033 12.5306C31.7796 13.5069 31.7796 15.0898 30.8033 16.0661L27.9749 18.8945L27.2678 19.6017L26.5607 18.8945L23.7322 16.0661C22.7559 15.0898 22.7559 13.5069 23.7322 12.5306C24.7085 11.5543 26.2915 11.5543 27.2678 12.5306C28.2441 11.5543 29.827 11.5543 30.8033 12.5306ZM10.5711 22.7448L9.86396 22.0377C9.27817 21.4519 8.32842 21.4519 7.74264 22.0377C7.15685 22.6235 7.15685 23.5732 7.74264 24.159L10.5711 26.9874L13.3995 24.159C13.9853 23.5732 13.9853 22.6235 13.3995 22.0377C12.8137 21.4519 11.864 21.4519 11.2782 22.0377L10.5711 22.7448ZM14.1066 21.3306C15.0829 22.3069 15.0829 23.8898 14.1066 24.8661L11.2782 27.6945L10.5711 28.4017L9.86396 27.6945L7.03553 24.8661C6.05922 23.8898 6.05922 22.3069 7.03553 21.3306C8.01184 20.3543 9.59476 20.3543 10.5711 21.3306C11.5474 20.3543 13.1303 20.3543 14.1066 21.3306ZM21.5711 22.7448L20.864 22.0377C20.2782 21.4519 19.3284 21.4519 18.7426 22.0377C18.1569 22.6235 18.1569 23.5732 18.7426 24.159L21.5711 26.9874L24.3995 24.159C24.9853 23.5732 24.9853 22.6235 24.3995 22.0377C23.8137 21.4519 22.864 21.4519 22.2782 22.0377L21.5711 22.7448ZM25.1066 21.3306C26.0829 22.3069 26.0829 23.8898 25.1066 24.8661L22.2782 27.6945L21.5711 28.4017L20.864 27.6945L18.0355 24.8661C17.0592 23.8898 17.0592 22.3069 18.0355 21.3306C19.0118 20.3543 20.5948 20.3543 21.5711 21.3306C22.5474 20.3543 24.1303 20.3543 25.1066 21.3306Z" fill="black"/>
</svg>
